<mxfile host="app.diagrams.net" modified="2024-03-22T11:48:56.625Z" agent="Mozilla/5.0 (Macintosh; Intel Mac OS X 10_15_7) AppleWebKit/537.36 (KHTML, like Gecko) Chrome/121.0.0.0 Safari/537.36" version="24.0.2" etag="oFm7KhHgeB-2gbGCYZ0A" type="github">
  <diagram name="第 1 页" id="ca0lG3OGvUnV6Fm0wzQs">
    <mxGraphModel>
      <root>
        <mxCell id="0" />
        <mxCell id="1" parent="0" />
      </root>
    </mxGraphModel>
  </diagram>
</mxfile>
